<mxfile host="app.diagrams.net" modified="2023-04-06T08:52:45.824Z" agent="Mozilla/5.0 (X11; Linux x86_64) AppleWebKit/537.36 (KHTML, like Gecko) Chrome/111.0.0.0 Safari/537.36" etag="0oC8DjJwn6JOCLOERAxs" version="21.1.4" type="device">
  <diagram id="3a2UMP3uVo23xNnavfp7" name="Page-1">
    <mxGraphModel dx="880" dy="590" grid="1" gridSize="10" guides="1" tooltips="1" connect="1" arrows="1" fold="1" page="1" pageScale="1" pageWidth="850" pageHeight="1100" math="0" shadow="0">
      <root>
        <mxCell id="0" />
        <mxCell id="1" parent="0" />
        <mxCell id="A1kJsQe7Ka4o7Ff1RWd9-35" style="edgeStyle=orthogonalEdgeStyle;rounded=0;orthogonalLoop=1;jettySize=auto;html=1;exitX=0.5;exitY=0.5;exitDx=0;exitDy=0;exitPerimeter=0;entryX=0.5;entryY=0;entryDx=0;entryDy=0;startArrow=classic;startFill=1;strokeWidth=1;" parent="1" source="A1kJsQe7Ka4o7Ff1RWd9-33" target="A1kJsQe7Ka4o7Ff1RWd9-34" edge="1">
          <mxGeometry relative="1" as="geometry">
            <Array as="points">
              <mxPoint x="650" y="370" />
              <mxPoint x="650" y="280" />
              <mxPoint x="330" y="280" />
            </Array>
          </mxGeometry>
        </mxCell>
        <mxCell id="A1kJsQe7Ka4o7Ff1RWd9-1" value="Validation Pool" style="rounded=1;whiteSpace=wrap;html=1;" parent="1" vertex="1">
          <mxGeometry x="370" y="250" width="120" height="60" as="geometry" />
        </mxCell>
        <mxCell id="A1kJsQe7Ka4o7Ff1RWd9-24" style="edgeStyle=orthogonalEdgeStyle;rounded=0;orthogonalLoop=1;jettySize=auto;html=1;exitX=0.75;exitY=1;exitDx=0;exitDy=0;entryX=0.25;entryY=0;entryDx=0;entryDy=0;startArrow=classic;startFill=1;strokeWidth=1;" parent="1" source="A1kJsQe7Ka4o7Ff1RWd9-2" target="A1kJsQe7Ka4o7Ff1RWd9-1" edge="1">
          <mxGeometry relative="1" as="geometry" />
        </mxCell>
        <mxCell id="A1kJsQe7Ka4o7Ff1RWd9-2" value="Profit Pool" style="rounded=1;whiteSpace=wrap;html=1;" parent="1" vertex="1">
          <mxGeometry x="270" y="160" width="120" height="60" as="geometry" />
        </mxCell>
        <mxCell id="A1kJsQe7Ka4o7Ff1RWd9-23" style="edgeStyle=orthogonalEdgeStyle;rounded=0;orthogonalLoop=1;jettySize=auto;html=1;exitX=1;exitY=0.3333333333333333;exitDx=0;exitDy=0;exitPerimeter=0;entryX=0;entryY=0.5;entryDx=0;entryDy=0;startArrow=classic;startFill=1;strokeWidth=1;" parent="1" source="A1kJsQe7Ka4o7Ff1RWd9-3" target="A1kJsQe7Ka4o7Ff1RWd9-2" edge="1">
          <mxGeometry relative="1" as="geometry" />
        </mxCell>
        <mxCell id="A1kJsQe7Ka4o7Ff1RWd9-3" value="Nominators" style="shape=umlActor;verticalLabelPosition=bottom;labelBackgroundColor=#ffffff;verticalAlign=top;html=1;outlineConnect=0;" parent="1" vertex="1">
          <mxGeometry x="20" y="100" width="30" height="60" as="geometry" />
        </mxCell>
        <mxCell id="A1kJsQe7Ka4o7Ff1RWd9-6" value="Elector" style="shape=switch;whiteSpace=wrap;html=1;" parent="1" vertex="1">
          <mxGeometry x="60" y="340" width="150" height="60" as="geometry" />
        </mxCell>
        <mxCell id="A1kJsQe7Ka4o7Ff1RWd9-18" value="pTON Jetton" style="rounded=1;whiteSpace=wrap;html=1;" parent="1" vertex="1">
          <mxGeometry x="100" y="110" width="120" height="30" as="geometry" />
        </mxCell>
        <mxCell id="A1kJsQe7Ka4o7Ff1RWd9-19" value="Awaited pTON Jetton" style="rounded=1;whiteSpace=wrap;html=1;" parent="1" vertex="1">
          <mxGeometry x="100" y="140" width="120" height="30" as="geometry" />
        </mxCell>
        <mxCell id="A1kJsQe7Ka4o7Ff1RWd9-20" value="Awaited TON Jetton" style="rounded=1;whiteSpace=wrap;html=1;" parent="1" vertex="1">
          <mxGeometry x="100" y="170" width="120" height="30" as="geometry" />
        </mxCell>
        <mxCell id="A1kJsQe7Ka4o7Ff1RWd9-29" style="edgeStyle=orthogonalEdgeStyle;rounded=0;orthogonalLoop=1;jettySize=auto;html=1;exitX=0;exitY=0.5;exitDx=0;exitDy=0;entryX=0.75;entryY=0;entryDx=0;entryDy=0;startArrow=classic;startFill=1;strokeWidth=1;" parent="1" source="A1kJsQe7Ka4o7Ff1RWd9-28" target="A1kJsQe7Ka4o7Ff1RWd9-1" edge="1">
          <mxGeometry relative="1" as="geometry">
            <Array as="points">
              <mxPoint x="540" y="170" />
              <mxPoint x="540" y="210" />
              <mxPoint x="460" y="210" />
            </Array>
          </mxGeometry>
        </mxCell>
        <mxCell id="oc19V6RLl1OHqvNvoCuc-1" style="edgeStyle=orthogonalEdgeStyle;rounded=0;orthogonalLoop=1;jettySize=auto;html=1;exitX=0.5;exitY=1;exitDx=0;exitDy=0;entryX=1;entryY=0.25;entryDx=0;entryDy=0;" edge="1" parent="1" source="A1kJsQe7Ka4o7Ff1RWd9-28" target="A1kJsQe7Ka4o7Ff1RWd9-34">
          <mxGeometry relative="1" as="geometry" />
        </mxCell>
        <mxCell id="oc19V6RLl1OHqvNvoCuc-2" value="Approval" style="edgeLabel;html=1;align=center;verticalAlign=middle;resizable=0;points=[];" vertex="1" connectable="0" parent="oc19V6RLl1OHqvNvoCuc-1">
          <mxGeometry x="-0.7818" relative="1" as="geometry">
            <mxPoint as="offset" />
          </mxGeometry>
        </mxCell>
        <mxCell id="A1kJsQe7Ka4o7Ff1RWd9-28" value="Governance" style="rounded=1;whiteSpace=wrap;html=1;" parent="1" vertex="1">
          <mxGeometry x="560" y="140" width="120" height="60" as="geometry" />
        </mxCell>
        <mxCell id="A1kJsQe7Ka4o7Ff1RWd9-32" style="edgeStyle=orthogonalEdgeStyle;rounded=0;orthogonalLoop=1;jettySize=auto;html=1;exitX=0.5;exitY=0.5;exitDx=0;exitDy=0;exitPerimeter=0;startArrow=classic;startFill=1;strokeWidth=1;" parent="1" source="A1kJsQe7Ka4o7Ff1RWd9-30" target="A1kJsQe7Ka4o7Ff1RWd9-28" edge="1">
          <mxGeometry relative="1" as="geometry">
            <Array as="points">
              <mxPoint x="730" y="70" />
              <mxPoint x="730" y="100" />
              <mxPoint x="620" y="100" />
            </Array>
          </mxGeometry>
        </mxCell>
        <mxCell id="A1kJsQe7Ka4o7Ff1RWd9-30" value="Governers" style="shape=umlActor;verticalLabelPosition=bottom;labelBackgroundColor=#ffffff;verticalAlign=top;html=1;outlineConnect=0;" parent="1" vertex="1">
          <mxGeometry x="750" y="40" width="30" height="60" as="geometry" />
        </mxCell>
        <mxCell id="A1kJsQe7Ka4o7Ff1RWd9-31" value="GJ Wallets" style="rounded=1;whiteSpace=wrap;html=1;" parent="1" vertex="1">
          <mxGeometry x="600" y="85" width="120" height="30" as="geometry" />
        </mxCell>
        <mxCell id="A1kJsQe7Ka4o7Ff1RWd9-37" style="edgeStyle=orthogonalEdgeStyle;rounded=0;orthogonalLoop=1;jettySize=auto;html=1;exitX=0.5;exitY=0.5;exitDx=0;exitDy=0;exitPerimeter=0;entryX=1;entryY=0.5;entryDx=0;entryDy=0;startArrow=classic;startFill=1;strokeWidth=1;" parent="1" source="A1kJsQe7Ka4o7Ff1RWd9-33" target="A1kJsQe7Ka4o7Ff1RWd9-34" edge="1">
          <mxGeometry relative="1" as="geometry" />
        </mxCell>
        <mxCell id="A1kJsQe7Ka4o7Ff1RWd9-33" value="Validators" style="shape=umlActor;verticalLabelPosition=bottom;labelBackgroundColor=#ffffff;verticalAlign=top;html=1;outlineConnect=0;" parent="1" vertex="1">
          <mxGeometry x="750" y="340" width="30" height="60" as="geometry" />
        </mxCell>
        <mxCell id="A1kJsQe7Ka4o7Ff1RWd9-36" style="edgeStyle=orthogonalEdgeStyle;rounded=0;orthogonalLoop=1;jettySize=auto;html=1;exitX=0;exitY=0.5;exitDx=0;exitDy=0;entryX=0.75;entryY=0.5;entryDx=0;entryDy=0;entryPerimeter=0;startArrow=classic;startFill=1;strokeWidth=1;" parent="1" source="A1kJsQe7Ka4o7Ff1RWd9-34" target="A1kJsQe7Ka4o7Ff1RWd9-6" edge="1">
          <mxGeometry relative="1" as="geometry" />
        </mxCell>
        <mxCell id="A1kJsQe7Ka4o7Ff1RWd9-34" value="Validator Controllers" style="rounded=1;whiteSpace=wrap;html=1;" parent="1" vertex="1">
          <mxGeometry x="270" y="340" width="120" height="60" as="geometry" />
        </mxCell>
        <mxCell id="u-6cv714392phKC8kd4y-1" value="" style="endArrow=none;dashed=1;html=1;dashPattern=1 3;strokeWidth=2;rounded=0;" parent="1" edge="1">
          <mxGeometry width="50" height="50" relative="1" as="geometry">
            <mxPoint x="480" y="130" as="sourcePoint" />
            <mxPoint x="790" y="130" as="targetPoint" />
          </mxGeometry>
        </mxCell>
        <mxCell id="u-6cv714392phKC8kd4y-2" value="Not now" style="text;html=1;align=center;verticalAlign=middle;resizable=0;points=[];autosize=1;strokeColor=none;fillColor=none;fontSize=17;" parent="1" vertex="1">
          <mxGeometry x="535" y="25" width="90" height="30" as="geometry" />
        </mxCell>
      </root>
    </mxGraphModel>
  </diagram>
</mxfile>
